<?xml version="1.0" encoding="utf-8"?>
<!-- Generator: Adobe Illustrator 21.0.2, SVG Export Plug-In . SVG Version: 6.00 Build 0)  -->
<svg version="1.1" id="Layer_1" xmlns:sketch="http://www.bohemiancoding.com/sketch/ns"
	 xmlns="http://www.w3.org/2000/svg" xmlns:xlink="http://www.w3.org/1999/xlink" x="0px" y="0px" width="630px" height="102px"
	 viewBox="0 0 630 102" style="enable-background:new 0 0 630 102;" xml:space="preserve">
<style type="text/css">
	.st0{fill:#FE7800;}
	.st1{fill:#E20C77;}
	.st2{fill:#818181;}
</style>
<title>PROSPER_LOGO_3_COLOR_RGB</title>
<desc>Created with Sketch.</desc>
<g>
	<path id="XMLID_40_" class="st0" d="M302.6,70.9l24.7-39.8c4.2,2.1,7.8,4.8,10.7,7.9l16.3-26.3c-2.9-3.1-6.5-5.8-10.7-7.9
		c-19.5-9.7-44.4-2.8-55.7,15.4C276.5,38.5,283.1,61.2,302.6,70.9L302.6,70.9z"/>
	<path id="XMLID_268_" class="st1" d="M327.3,31.1l-24.7,39.8c-4.2-2.1-7.8-4.8-10.7-7.9l-16.3,26.3c2.9,3.1,6.5,5.8,10.7,7.9
		c19.5,9.7,44.4,2.8,55.7-15.4C353.4,63.5,346.7,40.8,327.3,31.1L327.3,31.1z"/>
	<path id="XMLID_43_" class="st2" d="M187.9,18.3c4.8-8.7,15.8-17.9,31.8-17.9s26.9,9.2,31.8,17.9c3.3,5.9,4.4,8.8,4.4,32.7
		s-1.1,26.8-4.4,32.7c-4.8,8.7-15.8,17.9-31.8,17.9s-26.9-9.2-31.8-17.9c-3.3-5.9-4.4-8.8-4.4-32.7S184.6,24.2,187.9,18.3
		L187.9,18.3z M204,79.2c3.1,3.9,8.4,7.3,15.7,7.3s12.5-3.4,15.7-7.3c4-5,5.1-7.8,5.1-28.2s-1.1-23.2-5.1-28.2
		c-3.1-3.9-8.4-7.3-15.7-7.3s-12.5,3.4-15.7,7.3c-4,5-5.1,7.8-5.1,28.2S200,74.2,204,79.2L204,79.2z"/>
	<path id="XMLID_45_" class="st2" d="M91.5,1.3h39.6c8.6,0,15.3,2,20.7,6.6c5.7,4.7,10.1,12.3,10.1,21.2c0,12.9-7.4,23.3-19.7,27.5
		l23.5,44.1h-18.2l-21-42.5h-19.7v42.5H91.4L91.5,1.3L91.5,1.3z M106.9,44.9h23.2c11.5,0,17.3-7.4,17.3-15.8c0-5.2-2-9.1-5.1-11.3
		c-2.9-2.1-6-3.1-11.3-3.1h-24.1V44.9z"/>
	<path id="XMLID_47_" class="st2" d="M0.8,1.3h36.8c8,0,15,1,22.8,7c6.1,4.6,11,13,11,23.8c0,14.1-11,29.9-31.8,29.9H16.2v38.8H0.8
		V1.3L0.8,1.3z M16.2,47.6H39c11.4,0,17-8.2,17-16.1c0-6.7-2.7-10.8-6.6-13.3c-3.4-2.2-6.6-2.8-11-2.8H16.2V47.6L16.2,47.6z"/>
	<g id="XMLID_48_" transform="translate(376.000000, 1.000000)">
		<path id="XMLID_49_" class="st2" d="M0.1,0.2h36.8c8,0,15,1,22.8,7c6.1,4.6,11,13,11,23.8c0,14.1-11,29.9-31.8,29.9H15.5v38.8H0.1
			V0.2L0.1,0.2z M15.5,46.6h22.8c11.4,0,17-8.2,17-16.1c0-6.7-2.7-10.8-6.6-13.3c-3.4-2.2-6.6-2.8-11-2.8H15.5V46.6L15.5,46.6z"/>
		<path id="XMLID_50_" class="st2" d="M89.7,0.2h64.9v14.3h-49.5v28.4h42.2v13.4h-42.2v29.2h49.5v14.3H89.7V0.2L89.7,0.2z"/>
		<path id="XMLID_51_" class="st2" d="M178.9,0.2h39.6c8.6,0,15.3,2,20.7,6.6c5.7,4.7,10.1,12.3,10.1,21.2
			c0,12.9-7.4,23.3-19.7,27.5l23.5,44.1h-18.2l-21-42.5h-19.7v42.5h-15.4L178.9,0.2L178.9,0.2z M194.3,43.8h23.2
			c11.5,0,17.2-7.4,17.2-15.8c0-5.2-2-9.1-5.1-11.3c-2.9-2.1-6-3.1-11.3-3.1h-24.1v30.2H194.3z"/>
	</g>
</g>
</svg>
